<svg width="133" height="132" xmlns="http://www.w3.org/2000/svg" xmlns:xlink="http://www.w3.org/1999/xlink" xml:space="preserve" overflow="hidden"><g transform="translate(-356 -408)"><g><g><g><g><path d="M434.648 510.839 410.982 510.839C408.794 510.839 407.02 512.613 407.02 514.802 407.02 516.99 408.794 518.765 410.982 518.765L434.648 518.765C436.836 518.765 438.61 516.99 438.61 514.802 438.61 512.613 436.836 510.839 434.648 510.839Z" fill="#FFC000" fill-rule="nonzero" fill-opacity="1"/><path d="M422.816 532.201C427.31 532.2 431.048 528.745 431.4 524.265L414.23 524.265C414.583 528.745 418.321 532.201 422.816 532.201Z" fill="#FFC000" fill-rule="nonzero" fill-opacity="1"/><path d="M457.154 469.152 457.154 467.964C456.811 449.208 441.574 434.146 422.816 434.021 404.056 434.145 388.817 449.206 388.474 467.964L388.474 469.152C388.602 473.22 389.41 477.238 390.865 481.039 392.257 484.626 394.278 487.935 396.834 490.812 399.977 494.25 403.424 500.916 404.878 503.875 405.323 504.772 406.239 505.34 407.241 505.34L438.386 505.34C439.389 505.34 440.305 504.772 440.751 503.875 442.203 500.917 445.65 494.25 448.794 490.812 451.349 487.935 453.37 484.626 454.763 481.039 456.217 477.237 457.025 473.22 457.154 469.152ZM449.229 469.014C449.11 472.18 448.471 475.304 447.337 478.263 446.29 480.928 444.778 483.388 442.873 485.527 439.846 489.176 437.253 493.164 435.147 497.412L410.477 497.412C408.371 493.164 405.778 489.175 402.75 485.527 400.845 483.388 399.334 480.929 398.287 478.263 397.154 475.305 396.516 472.182 396.398 469.017L396.398 468.027C396.665 453.605 408.388 442.029 422.813 441.945 437.239 442.028 448.963 453.606 449.227 468.03Z" fill="#FFC000" fill-rule="nonzero" fill-opacity="1"/><path d="M423.085 428.625C424.604 428.625 425.835 427.394 425.835 425.875L425.835 416.25C425.835 414.731 424.604 413.5 423.085 413.5 421.566 413.5 420.335 414.731 420.335 416.25L420.335 425.875C420.335 427.394 421.566 428.625 423.085 428.625Z" fill="#FFC000" fill-rule="nonzero" fill-opacity="1"/><path d="M390.448 440.725C391.503 441.817 393.244 441.848 394.337 440.793 395.429 439.737 395.459 437.997 394.404 436.904 394.382 436.881 394.36 436.859 394.337 436.836L387.525 430.025C386.433 428.97 384.692 429 383.637 430.092 382.607 431.158 382.607 432.848 383.637 433.913Z" fill="#FFC000" fill-rule="nonzero" fill-opacity="1"/><path d="M453.815 442.046C454.544 442.046 455.244 441.756 455.759 441.241L462.564 434.434C463.597 433.321 463.532 431.581 462.419 430.548 461.363 429.569 459.73 429.569 458.676 430.55L451.875 437.352C450.801 438.426 450.802 440.167 451.876 441.241 452.391 441.757 453.09 442.046 453.819 442.046Z" fill="#FFC000" fill-rule="nonzero" fill-opacity="1"/><path d="M380.375 465.062 370.75 465.062C369.231 465.062 368 466.294 368 467.812 368 469.331 369.231 470.562 370.75 470.562L380.375 470.562C381.894 470.562 383.125 469.331 383.125 467.812 383.125 466.294 381.894 465.062 380.375 465.062Z" fill="#FFC000" fill-rule="nonzero" fill-opacity="1"/><path d="M390.448 494.812 383.642 501.618C382.524 502.646 382.45 504.386 383.478 505.504 384.506 506.622 386.246 506.695 387.364 505.668 387.42 505.616 387.474 505.563 387.525 505.507L394.331 498.701C395.424 497.645 395.454 495.904 394.399 494.812 393.344 493.72 391.603 493.689 390.51 494.744 390.487 494.766 390.465 494.789 390.443 494.812Z" fill="#FFC000" fill-rule="nonzero" fill-opacity="1"/><path d="M455.759 494.291C454.725 493.179 452.985 493.115 451.873 494.149 450.761 495.184 450.697 496.924 451.731 498.036 451.778 498.085 451.825 498.133 451.875 498.179L458.68 504.984C459.772 506.039 461.513 506.009 462.568 504.917 463.598 503.851 463.598 502.161 462.568 501.096Z" fill="#FFC000" fill-rule="nonzero" fill-opacity="1"/><path d="M474.906 464.969 465.281 464.969C463.762 464.969 462.531 466.2 462.531 467.719 462.531 469.238 463.762 470.469 465.281 470.469L474.906 470.469C476.425 470.469 477.656 469.238 477.656 467.719 477.656 466.2 476.425 464.969 474.906 464.969Z" fill="#FFC000" fill-rule="nonzero" fill-opacity="1"/></g></g></g></g></g></svg>